<?xml version="1.0" encoding="utf-8"?>
<!-- Generator: Adobe Illustrator 15.0.0, SVG Export Plug-In . SVG Version: 6.00 Build 0)  -->
<!DOCTYPE svg PUBLIC "-//W3C//DTD SVG 1.1//EN" "http://www.w3.org/Graphics/SVG/1.1/DTD/svg11.dtd">
<svg version="1.1" id="Layer_1" xmlns="http://www.w3.org/2000/svg" xmlns:xlink="http://www.w3.org/1999/xlink" x="0px" y="0px"
	 width="620px" height="550px" viewBox="0 0 620 550" enable-background="new 0 0 620 550" xml:space="preserve">
<path opacity="0.2" fill="#00AEEF" enable-background="new    " d="M538.709,391.494c-10.604,8.797-25.695,12.438-40.289,14.736
	l-2.456,0.375c-25.508,3.807-51.529,4.582-77.429,5.348c-72.238,2.139-144.663,4.273-216.709-0.658
	c-31.862-2.176-64.512-5.992-92.437-19.031l-0.727-0.344c-0.361-0.17-0.724-0.34-1.085-0.518c-4.958-2.367-9.708-5.148-14.198-8.314
	c-7.974-5.688-14.559-12.629-18.038-20.865c-5.452-12.916-2.569-27.438,3.658-40.066s15.591-24.006,23.665-35.898
	c2.369-3.484,4.617-7.1,6.707-10.805c13.065-23.244,19.546-50.141,5.85-72.539c-1.809-2.855-3.761-5.617-5.85-8.275
	c-3.34-4.355-6.736-8.709-9.032-13.531c-5.353-11.219-4.202-23.834-2.251-35.82c2.613-15.936,7.425-33.098,22.376-43.055
	c15.534-10.338,37.585-9.816,56.864-6.096c29.976,5.744,57.644,17.768,85.572,28.611c27.93,10.846,57.204,20.723,87.912,21.785
	c27.114,0.945,58.745-6.098,76.749-24.424c17.486-17.791,50.345-19.137,74.037-8.393c22.606,10.252,37.227,31.949,36.146,53.621
	c-1.376,27.045-23.922,48.701-41.765,71.727c-2.966,3.828-5.806,7.699-8.396,11.637c-8.458,12.861-14.438,28.309-8.615,42.193
	c3.267,7.773,9.499,13.705,17.012,18.883c16.832,11.598,40.066,19.402,50.519,35.639
	C555.502,361.422,552.166,380.322,538.709,391.494z"/>
<g>
	<path fill="none" stroke="#535461" stroke-width="2" stroke-miterlimit="10" d="M75.748,275.525
		c2.48,2.281,4.747,4.785,6.771,7.479c4.229,5.707,6.489,12.631,6.447,19.732c0.008,16.93,14.458,33.063,14.458,33.063"/>
	<path fill="#00AEEF" d="M75.667,264.857c-1.094-2.299-3.844-3.275-6.144-2.182c-2.299,1.094-3.275,3.844-2.183,6.143
		c1.096,2.299,8.429,6.988,8.429,6.988S76.762,267.156,75.667,264.857L75.667,264.857z"/>
	<path fill="#00AEEF" d="M84.639,269.152c-2.525-0.33-4.841,1.447-5.172,3.971c-0.331,2.527,3.28,10.449,3.28,10.449
		s5.532-6.723,5.861-9.248C88.94,271.799,87.163,269.484,84.639,269.152z"/>
	<path fill="#00AEEF" d="M98.666,296.23c1.561-2.014,1.194-4.91-0.819-6.471c-2.012-1.561-4.909-1.193-6.47,0.818
		s-2.445,10.676-2.445,10.676s8.171-3.012,9.731-5.023H98.666z"/>
	<path fill="#00AEEF" d="M102.536,314.52c1.199-2.246,0.349-5.039-1.898-6.238c-2.246-1.197-5.039-0.348-6.238,1.898
		c-1.198,2.248-0.604,10.932-0.604,10.932S101.339,316.77,102.536,314.52L102.536,314.52z"/>
	<path fill="#00AEEF" d="M74.006,288.102c-2.393-0.875-3.622-3.525-2.746-5.918c0.875-2.391,3.524-3.621,5.916-2.746
		c2.406,0.828,7.925,7.555,7.925,7.555s-8.474,1.996-10.887,1.18C74.144,288.15,74.074,288.127,74.006,288.102z"/>
	<path fill="#00AEEF" d="M79.018,309.52c-2.462-0.113-4.399-2.141-4.4-4.607c0-2.547,2.064-4.611,4.612-4.613
		c2.547,0.059,9.821,4.84,9.821,4.84s-7.485,4.439-10.03,4.381H79.018z"/>
	<path fill="#00AEEF" d="M86.529,329.598c-2.5-0.488-4.13-2.908-3.644-5.408c0.488-2.498,2.909-4.129,5.408-3.643
		c2.5,0.49,8.864,6.43,8.864,6.43S89.028,330.086,86.529,329.598L86.529,329.598z"/>
	<path opacity="0.25" enable-background="new    " d="M75.667,264.857c-1.094-2.299-3.844-3.275-6.144-2.182
		c-2.299,1.094-3.275,3.844-2.183,6.143c1.096,2.299,8.429,6.988,8.429,6.988S76.762,267.156,75.667,264.857L75.667,264.857z"/>
	<path opacity="0.25" enable-background="new    " d="M84.639,269.152c-2.525-0.33-4.841,1.447-5.172,3.971
		c-0.331,2.527,3.28,10.449,3.28,10.449s5.532-6.723,5.861-9.248C88.94,271.799,87.163,269.484,84.639,269.152z"/>
	<path opacity="0.25" enable-background="new    " d="M98.666,296.23c1.561-2.014,1.194-4.91-0.819-6.471
		c-2.012-1.561-4.909-1.193-6.47,0.818s-2.445,10.676-2.445,10.676s8.171-3.012,9.731-5.023H98.666z"/>
	<path opacity="0.25" enable-background="new    " d="M102.536,314.52c1.199-2.246,0.349-5.039-1.898-6.238
		c-2.246-1.197-5.039-0.348-6.238,1.898c-1.198,2.248-0.604,10.932-0.604,10.932S101.339,316.77,102.536,314.52L102.536,314.52z"/>
	<path opacity="0.25" enable-background="new    " d="M74.006,288.102c-2.393-0.875-3.622-3.525-2.746-5.918
		c0.875-2.391,3.524-3.621,5.916-2.746c2.406,0.828,7.925,7.555,7.925,7.555s-8.474,1.996-10.887,1.18
		C74.144,288.15,74.074,288.127,74.006,288.102z"/>
	<path opacity="0.25" enable-background="new    " d="M79.018,309.52c-2.462-0.113-4.399-2.141-4.4-4.607
		c0-2.547,2.064-4.611,4.612-4.613c2.547,0.059,9.821,4.84,9.821,4.84s-7.485,4.439-10.03,4.381H79.018z"/>
	<path opacity="0.25" enable-background="new    " d="M86.529,329.598c-2.5-0.488-4.13-2.908-3.644-5.408
		c0.488-2.498,2.909-4.129,5.408-3.643c2.5,0.49,8.864,6.43,8.864,6.43S89.028,330.086,86.529,329.598L86.529,329.598z"/>
	<path fill="none" stroke="#535461" stroke-width="2" stroke-miterlimit="10" d="M53.534,291.219
		c3.189,1.078,6.273,2.445,9.214,4.086c6.182,3.502,11.06,8.914,13.902,15.426c6.867,15.477,26.616,24.369,26.616,24.369"/>
	<path fill="#00AEEF" d="M49.138,281.492c-0.063-0.057-0.125-0.109-0.19-0.162c-1.977-1.605-4.88-1.305-6.484,0.674
		c-1.604,1.977-1.304,4.879,0.674,6.482c1.932,1.66,10.535,2.975,10.535,2.975s-2.597-8.311-4.529-9.969H49.138z"/>
	<path fill="#00AEEF" d="M64.807,284.898c-0.02-0.072-0.041-0.145-0.064-0.217c-0.779-2.424-3.378-3.758-5.803-2.979
		c-2.425,0.781-3.759,3.379-2.979,5.805c0.72,2.441,7.229,8.219,7.229,8.219s2.328-8.383,1.618-10.83L64.807,284.898z"/>
	<path fill="#00AEEF" d="M82.878,300.855c0.611-2.471-0.896-4.973-3.367-5.584s-4.973,0.896-5.584,3.369
		c-0.607,2.471,2.091,10.746,2.091,10.746S82.266,303.326,82.878,300.855L82.878,300.855z"/>
	<path fill="#00AEEF" d="M93.829,315.998c0.14-2.482-1.715-4.629-4.191-4.852c-2.537-0.229-4.779,1.643-5.008,4.18
		c-0.172,2.545,3.883,10.252,3.883,10.252s5.132-7.033,5.318-9.57L93.829,315.998z"/>
	<path fill="#00AEEF" d="M57.261,303.395c-2.467,0.172-4.63-1.633-4.904-4.09c-0.283-2.531,1.54-4.813,4.072-5.096
		c2.535-0.23,10.307,3.697,10.307,3.697S59.799,303.164,57.261,303.395L57.261,303.395z"/>
	<path fill="#00AEEF" d="M64.268,318.463c-0.978-2.352,0.136-5.051,2.487-6.027c2.351-0.979,10.938,0.445,10.938,0.445
		s-5.049,7.09-7.399,8.068C67.943,321.926,65.245,320.813,64.268,318.463z"/>
	<path fill="#00AEEF" d="M79.887,332.873c-0.613-2.473,0.894-4.975,3.366-5.588c2.482-0.564,10.708,2.287,10.708,2.287
		s-6.175,6.137-8.657,6.705C82.877,336.783,80.483,335.279,79.887,332.873z"/>
</g>
<g>
	<path fill="none" stroke="#535461" stroke-width="2" stroke-miterlimit="10" d="M391.129,188.963c0,0,19.343-21.596,19.354-44.26
		c-0.057-9.506,2.971-18.775,8.631-26.413c2.709-3.606,5.744-6.958,9.064-10.011"/>
	<path fill="#00AEEF" d="M428.286,94c-1.466,3.078-0.138,14.656-0.138,14.656s9.816-6.277,11.282-9.355
		c1.464-3.077,0.156-6.759-2.921-8.223C433.432,89.614,429.75,90.922,428.286,94L428.286,94z"/>
	<path fill="#00AEEF" d="M410.962,106.672c0.44,3.379,7.847,12.378,7.847,12.378s4.834-10.604,4.391-13.985
		c-0.443-3.379-3.543-5.76-6.923-5.315C412.897,100.192,410.518,103.292,410.962,106.672z"/>
	<path fill="#00AEEF" d="M397.503,135.996c2.09,2.691,13.026,6.723,13.026,6.723s-1.184-11.598-3.273-14.289
		c-2.089-2.693-5.967-3.185-8.66-1.096c-2.695,2.089-3.186,5.967-1.097,8.66L397.503,135.996z"/>
	<path fill="#00AEEF" d="M392.318,160.479c1.604,3.01,11.701,8.822,11.701,8.822s0.795-11.623-0.809-14.633
		c-1.605-3.007-5.344-4.145-8.352-2.541C391.852,153.732,390.714,157.471,392.318,160.479L392.318,160.479z"/>
	<path fill="#00AEEF" d="M430.231,125.208c-3.23,1.093-14.573-1.579-14.573-1.579s7.387-9.004,10.607-10.112
		c3.202-1.171,6.748,0.475,7.92,3.677s-0.474,6.748-3.676,7.92C430.418,125.146,430.325,125.179,430.231,125.208z"/>
	<path fill="#00AEEF" d="M423.797,153.783c-3.406,0.078-13.427-5.864-13.427-5.864s9.737-6.399,13.147-6.478
		c3.41,0.001,6.174,2.766,6.174,6.176c-0.002,3.3-2.596,6.015-5.891,6.166H423.797z"/>
	<path fill="#00AEEF" d="M413.746,180.66c-3.346,0.654-14.229-3.508-14.229-3.508s8.52-7.951,11.866-8.605
		c3.345-0.652,6.586,1.529,7.239,4.875C419.274,176.768,417.092,180.008,413.746,180.66L413.746,180.66z"/>
	<path opacity="0.25" enable-background="new    " d="M428.286,94c-1.466,3.078-0.138,14.656-0.138,14.656s9.816-6.277,11.282-9.355
		c1.464-3.077,0.156-6.759-2.921-8.223C433.432,89.614,429.75,90.922,428.286,94L428.286,94z"/>
	<path opacity="0.25" enable-background="new    " d="M410.962,106.672c0.44,3.379,7.847,12.378,7.847,12.378
		s4.834-10.604,4.391-13.985c-0.443-3.379-3.543-5.76-6.923-5.315C412.897,100.192,410.518,103.292,410.962,106.672z"/>
	<path opacity="0.25" enable-background="new    " d="M397.503,135.996c2.09,2.691,13.026,6.723,13.026,6.723
		s-1.184-11.598-3.273-14.289c-2.089-2.693-5.967-3.185-8.66-1.096c-2.695,2.089-3.186,5.967-1.097,8.66L397.503,135.996z"/>
	<path opacity="0.25" enable-background="new    " d="M392.318,160.479c1.604,3.01,11.701,8.822,11.701,8.822
		s0.795-11.623-0.809-14.633c-1.605-3.007-5.344-4.145-8.352-2.541C391.852,153.732,390.714,157.471,392.318,160.479
		L392.318,160.479z"/>
	<path opacity="0.25" enable-background="new    " d="M430.231,125.208c-3.23,1.093-14.573-1.579-14.573-1.579
		s7.387-9.004,10.607-10.112c3.202-1.171,6.748,0.475,7.92,3.677s-0.474,6.748-3.676,7.92
		C430.418,125.146,430.325,125.179,430.231,125.208z"/>
	<path opacity="0.25" enable-background="new    " d="M423.797,153.783c-3.406,0.078-13.427-5.864-13.427-5.864
		s9.737-6.399,13.147-6.478c3.41,0.001,6.174,2.766,6.174,6.176c-0.002,3.3-2.596,6.015-5.891,6.166H423.797z"/>
	<path opacity="0.25" enable-background="new    " d="M413.746,180.66c-3.346,0.654-14.229-3.508-14.229-3.508
		s8.52-7.951,11.866-8.605c3.345-0.652,6.586,1.529,7.239,4.875C419.274,176.768,417.092,180.008,413.746,180.66L413.746,180.66z"/>
	<path fill="none" stroke="#535461" stroke-width="2" stroke-miterlimit="10" d="M391.341,188.025c0,0,26.437-11.904,35.629-32.622
		c3.806-8.714,10.335-15.959,18.609-20.646c3.937-2.196,8.064-4.027,12.335-5.472"/>
	<path fill="#00AEEF" d="M463.791,116.266c-2.586,2.219-6.063,13.345-6.063,13.345s11.517-1.761,14.103-3.98
		c2.646-2.147,3.05-6.034,0.901-8.68s-6.033-3.05-8.68-0.901c-0.087,0.07-0.172,0.143-0.255,0.219L463.791,116.266z"/>
	<path fill="#00AEEF" d="M442.82,120.824c-0.95,3.276,2.166,14.498,2.166,14.498s8.715-7.736,9.678-11.004
		c1.045-3.246-0.74-6.725-3.986-7.769s-6.725,0.741-7.769,3.986c-0.03,0.097-0.06,0.192-0.086,0.29L442.82,120.824z"/>
	<path fill="#00AEEF" d="M418.633,142.186c0.82,3.308,9.184,11.422,9.184,11.422s3.611-11.079,2.799-14.388
		c-0.818-3.31-4.166-5.327-7.475-4.508S417.814,138.878,418.633,142.186L418.633,142.186z"/>
	<path fill="#00AEEF" d="M403.971,162.469c0.25,3.396,7.12,12.813,7.12,12.813s5.428-10.316,5.197-13.725
		c-0.306-3.395-3.308-5.9-6.704-5.595c-3.314,0.298-5.797,3.171-5.61,6.495L403.971,162.469z"/>
	<path fill="#00AEEF" d="M452.925,145.585c-3.397-0.309-12.683-7.348-12.683-7.348s10.402-5.255,13.796-4.948
		c3.39,0.379,5.829,3.432,5.452,6.821C459.122,143.399,456.227,145.814,452.925,145.585L452.925,145.585z"/>
	<path fill="#00AEEF" d="M435.479,169.084c-3.146-1.311-9.905-10.802-9.905-10.802s11.496-1.905,14.643-0.595
		c3.147,1.309,4.638,4.92,3.329,8.068C442.236,168.902,438.625,170.393,435.479,169.084z"/>
	<path fill="#00AEEF" d="M415.386,189.604c-3.323-0.762-11.589-8.979-11.589-8.979s11.012-3.816,14.334-3.061
		c3.311,0.822,5.327,4.172,4.506,7.48C421.838,188.266,418.635,190.279,415.386,189.604z"/>
</g>
<path fill="#FFD503" d="M245.253,75.99c24.82-54.042,68.379-55.468,96.739-3.242l208.481,383.641
	c28.404,52.256,8.771,72.004-43.604,43.891l-102.533-54.961c-52.401-28.174-137.61-27.234-189.364,2.037l-95.278,53.75
	c-51.775,29.271-73.794,8.928-48.99-45.051L245.253,75.99z"/>
<path opacity="0.25" fill="#00AEEF" enable-background="new    " d="M71.402,201.397c0,0,36.512-2.199,32.211,23.381
	c0,0,0.85,4.52-3.25,6.58c0,0-0.061-1.9-3.74-1.26c-1.32,0.221-2.664,0.289-4,0.199c-1.791-0.121-3.494-0.822-4.85-2l0,0
	c0,0-10.26-4.24-14.25-21c0,0-2.951-3.66-2.83-4.6l6.16,2.631c0,0-2.111,4.449-0.451,8.139c0,0,0.201-8,1.381-7.789
	c0.24,0,3.199,1.539,3.199,1.539s-3.619,7.75-0.889,13.371c0,0-1-9.541,2-12.811l4.34,2.529c0,0-4.23,8-1.361,14.531
	c0,0-0.738-10,2.271-13.91l3.93,3.07c0,0-4,7.879-1.551,13.289c0,0,0.32-11.65,2.4-12.529c0,0,3.439,3,4,4.279
	c0,0-2.73,5.721-1,8.74c0,0,1-7.77,1.891-7.801c0,0,3.42,5.141,3.779,8.67c-0.184-3.262-1.217-6.42-3-9.16
	c1.975,0.371,3.797,1.313,5.24,2.711c0,0-0.529-3.631-6.09-4c0,0-2.83-3.9-3.59-4.141c0,0,5.529-0.459,8.879,1
	c0,0-2.949-3.43-9.889-1.869l-3.84-3.061c0,0,7.279-1,10.359,0.1c0,0-3.551-3-11.4-0.818l-4.23-2.531c0,0,6.201-1.34,9.9-0.85
	c0,0-3.9-2.109-11.141,0.17l-3-1.35c0,0,4.551-0.9,5.881-1s1.4-0.51,1.4-0.51c-2.881-0.48-5.836-0.152-8.541,0.949
	C77.732,204.288,71.303,201.808,71.402,201.397z"/>
<path opacity="0.25" fill="#00AEEF" enable-background="new    " d="M520.066,244.27c0,0,27.18,24.459,5.939,39.35
	c0,0-2.619,3.779-7,2.301c0,0,1.301-1.381-1.738-3.551c-1.078-0.777-2.057-1.68-2.92-2.689c-1.184-1.357-1.885-3.064-2-4.861l0,0
	c0,0-4.191-10.279,5-24.898c0,0,0.539-4.67,1.289-5.24l2.449,6.23c0,0-4.639,1.619-6.109,5.389c0,0,5.82-5.449,6.52-4.48
	c0.141,0.201,1.15,3.361,1.15,3.361s-8.061,2.859-10.15,8.75c0,0,6.061-7.43,10.541-7.551l1.24,4.871c0,0-8.67,2.6-11.301,9.219
	c0,0,6.609-7.549,11.5-8.139l0.57,4.949c0,0-8.4,2.699-10.551,8.221c0,0,8.521-7.951,10.611-7.08c0,0,0.25,4.58-0.271,5.83
	c0,0-6,2.068-7,5.398c0,0,6.26-4.709,6.881-4.129c0,0-1.26,6.049-3.52,8.77c2.203-2.404,3.736-5.346,4.449-8.529
	c1.119,1.67,1.727,3.629,1.75,5.639c0,0,2.211-2.93-1.459-7.109c0,0,0.789-4.75,0.43-5.459c0,0,4.209,3.609,5.5,7
	c0,0,0.379-4.512-5.611-8.371l-0.459-5c0,0,5.811,4.48,7.189,7.451c0,0-0.33-4.66-7.41-8.701l-1.17-4.779
	c0,0,5.311,3.48,7.561,6.449c0,0-1.24-4.25-8-7.811l-1.15-3.109c0,0,3.83,2.621,4.859,3.471c1.031,0.85,1.352,0.639,1.352,0.639
	c-1.68-2.389-3.988-4.264-6.67-5.42C522.357,250.648,519.697,244.469,520.066,244.27z"/>
<path opacity="0.25" fill="#00AEEF" enable-background="new    " d="M395.211,53.104c0,0-2.609,36.479-27.41,28.851
	c0,0-4.59,0.25-6.09-4.08c0,0,1.891,0.18,1.73-3.551c-0.047-1.342,0.066-2.686,0.34-4c0.355-1.758,1.275-3.352,2.621-4.539l0,0
	c0,0,5.549-9.621,22.699-11.371c0,0,4-2.439,4.93-2.21l-3.41,5.771c0,0-4.129-2.67-8-1.52c0,0,7.881,1.25,7.541,2.4
	c-0.07,0.229-2,3-2,3s-7.201-4.611-13.141-2.641c0,0,9.59,0.221,12.43,3.689l-3.07,4c0,0-7.299-5.25-14.17-3.25
	c0,0,10,0.59,13.48,4.08l-3.549,3.5c0,0-7.291-5-13-3.289c0,0,11.5,1.85,12.1,4c0,0-3.461,3-4.76,3.369c0,0-5.311-3.449-8.531-2.18
	c0,0,7.561,2.051,7.48,2.9c0,0-5.551,2.719-9.09,2.609c3.252,0.26,6.516-0.332,9.471-1.721c-0.629,1.91-1.805,3.594-3.381,4.84
	c0,0,3.68,0,4.721-5.52c0,0,4.238-2.289,4.568-3c0,0-0.26,5.541-2.18,8.66c0,0,3.791-2.469,3.16-9.561l3.65-3.43
	c0,0,0,7.35-1.471,10.26c0,0,3.48-3.119,2.32-11.199l3.061-3.85c0,0,0.51,6.32-0.461,9.92c0,0,2.602-3.59,1.291-11.061l1.74-2.82
	c0,0,0.289,4.631,0.26,6c-0.029,1.371,0.32,1.461,0.32,1.461c0.852-2.793,0.914-5.766,0.18-8.59
	C391.592,59.034,394.871,52.934,395.211,53.104z"/>
<g>
	<g>
		<rect x="156.013" y="180.227" fill="#F5F5F5" width="311.975" height="135"/>
		<path fill="#54D6A1" d="M207.9,232.503h-21.783c-1.486-8.594-1.486-17.379,0-25.973H207.9
			C205.447,215.014,205.447,224.02,207.9,232.503z"/>
		<path fill="#00AEEF" d="M226.76,243.566h21.783c1.486-8.594,1.486-17.38,0-25.974H226.76
			C229.215,226.077,229.215,235.083,226.76,243.566z"/>
		<path fill="#231F20" d="M275.194,205.462c3.578,18.029,4.595,36.47,3.025,54.781c-0.413,4.769-1.003,9.516-1.771,14.243
			c-0.349,2.149-0.747,4.289-1.155,6.428c-0.234,1.226-0.728,2.751,0.043,3.904c1.5,2.246,6.644,1.66,8.911,1.734
			c4.714,0.152,9.436,0.179,14.153,0.261l14.19,0.247l6.832,0.119c2.327,0.041,4.876,0.401,7.187,0.104
			c3.038-0.392,2.298-3.575,2.252-5.939c-0.091-4.675-0.215-9.35-0.374-14.023c-0.627-18.521-1.781-37.014-3.462-55.479
			c-0.216-2.356-0.082-5.175-0.717-7.452c-0.255-0.921-0.511-1.187-1.513-1.353c-2.289-0.378-5.019,0.021-7.338,0.037l-7.75,0.054
			l-31.516,0.219c-0.438,0.016-0.779,0.382-0.766,0.818c0.016,0.416,0.349,0.75,0.766,0.764l25.833-0.18l11.366-0.079l6.201-0.043
			c1.273-0.009,2.465-0.395,3.264,1.008c0.506,0.887,0.299,3.105,0.396,4.139c1.543,16.554,2.663,33.141,3.358,49.759
			c0.174,4.153,0.321,8.307,0.443,12.463c0.049,1.731,0.095,3.462,0.136,5.193c0.024,1.039,0.048,2.078,0.068,3.117
			c0.022,1.071,0.466,3.172,0.076,4.156c-0.829,2.099-4.527,1.196-6.335,1.165l-6.308-0.111l-12.613-0.219l-12.613-0.221
			c-2.086-0.036-4.173-0.052-6.257-0.141c-0.691-0.031-1.384-0.063-2.075-0.113c-2.055-0.146-4.269,0.34-4.513-2.501
			c-0.15-1.754,0.809-4.172,1.107-5.926c0.338-1.98,0.646-3.967,0.922-5.958c0.517-3.719,0.929-7.45,1.235-11.194
			c1.449-18.126,0.384-36.366-3.166-54.2C276.522,204.044,274.997,204.466,275.194,205.462L275.194,205.462z"/>
		<path fill="#231F20" d="M379.094,205.462c3.577,18.029,4.596,36.47,3.024,54.781c-0.411,4.769-1.002,9.516-1.769,14.243
			c-0.35,2.149-0.748,4.289-1.157,6.428c-0.234,1.226-0.727,2.751,0.044,3.904c1.501,2.246,6.645,1.66,8.91,1.734
			c4.715,0.152,9.437,0.179,14.153,0.261l14.19,0.247l6.832,0.119c2.328,0.041,4.877,0.401,7.187,0.104
			c3.039-0.392,2.299-3.575,2.253-5.939c-0.092-4.675-0.216-9.35-0.374-14.023c-0.627-18.521-1.781-37.014-3.463-55.479
			c-0.215-2.356-0.08-5.175-0.715-7.452c-0.257-0.921-0.513-1.187-1.513-1.353c-2.29-0.378-5.021,0.021-7.338,0.037l-7.751,0.054
			l-31.517,0.219c-0.438,0.016-0.778,0.382-0.764,0.818c0.015,0.416,0.349,0.75,0.764,0.764l25.834-0.18l11.366-0.079l6.2-0.043
			c1.275-0.009,2.466-0.395,3.265,1.008c0.505,0.887,0.298,3.105,0.396,4.139c1.542,16.554,2.663,33.141,3.359,49.759
			c0.173,4.153,0.319,8.307,0.441,12.463c0.05,1.731,0.096,3.462,0.137,5.193c0.024,1.039,0.048,2.078,0.069,3.117
			c0.021,1.071,0.466,3.172,0.076,4.156c-0.83,2.099-4.528,1.196-6.337,1.165l-6.307-0.111l-12.612-0.219l-12.613-0.221
			c-2.085-0.036-4.175-0.052-6.259-0.141c-0.69-0.031-1.383-0.063-2.073-0.113c-2.056-0.146-4.27,0.34-4.514-2.501
			c-0.151-1.754,0.808-4.172,1.108-5.926c0.338-1.98,0.645-3.967,0.921-5.958c0.518-3.719,0.93-7.45,1.235-11.194
			c1.449-18.126,0.383-36.366-3.167-54.2C380.421,204.044,378.896,204.466,379.094,205.462L379.094,205.462z"/>
		<path fill="#231F20" d="M282.47,209.535h10.464c0.438-0.016,0.78-0.382,0.766-0.818c-0.016-0.416-0.349-0.749-0.766-0.764H282.47
			c-0.438,0.015-0.779,0.381-0.764,0.817C281.721,209.187,282.053,209.521,282.47,209.535z"/>
		<path fill="#231F20" d="M282.469,213.104l9.863-0.373c1.016-0.038,1.021-1.621,0-1.582l-9.863,0.373
			C281.454,211.561,281.448,213.143,282.469,213.104z"/>
		<path fill="#231F20" d="M282.47,216.114h9.567c0.438-0.017,0.778-0.383,0.764-0.819c-0.015-0.416-0.349-0.75-0.764-0.765h-9.567
			c-0.438,0.015-0.779,0.382-0.764,0.819C281.721,215.766,282.053,216.098,282.47,216.114z"/>
		<path fill="#231F20" d="M314.176,208.793c-2.147-1.121-4.096,0.722-4.398,2.827c-0.148,1.029-0.181,2.437,0.476,3.311
			c0.67,0.893,1.958,1.268,3.028,1.333c2.042,0.126,4.216-1.013,4.718-3.104c0.491-1.923-0.551-3.907-2.413-4.594
			c-0.964-0.335-1.378,1.194-0.42,1.525c0.912,0.378,1.464,1.315,1.354,2.297c-0.13,1.129-0.992,2.036-2.114,2.218
			c-1.307,0.3-2.836-0.022-3.09-1.494c-0.188-1.103,0.41-3.814,2.062-2.953C314.279,210.63,315.08,209.264,314.176,208.793
			L314.176,208.793z"/>
		<path fill="#231F20" d="M386.369,209.535h10.465c0.436-0.016,0.778-0.382,0.764-0.818c-0.015-0.416-0.349-0.749-0.764-0.764
			h-10.465c-0.438,0.015-0.779,0.381-0.765,0.817C385.619,209.187,385.953,209.521,386.369,209.535z"/>
		<path fill="#231F20" d="M386.368,213.104l9.863-0.373c1.016-0.038,1.021-1.621,0-1.582l-9.863,0.373
			C385.353,211.561,385.348,213.143,386.368,213.104z"/>
		<path fill="#231F20" d="M386.369,216.114h9.566c0.438-0.017,0.778-0.383,0.765-0.819c-0.015-0.416-0.349-0.75-0.765-0.765h-9.566
			c-0.438,0.015-0.779,0.382-0.765,0.819C385.619,215.766,385.953,216.098,386.369,216.114z"/>
		<path fill="#231F20" d="M284.562,224.79c11.512,0.121,23.011-0.234,34.498-1.065l-0.763-1.003
			c-1.881,4.766-1.829,9.787-1.579,14.827c0.063,1.263,0.458,2.966,0.202,4.216c-0.322,1.574-1.734,1.198-3.138,1.242
			c-3.094,0.102-6.188,0.173-9.283,0.217c-2.922,0.041-5.844,0.058-8.767,0.049c-1.376-0.005-2.751-0.014-4.127-0.03
			c-1.614-0.018-3.45,0.451-3.868-1.419c-0.268-1.199,0.003-2.774,0.003-4.007l0.003-4.507l0.007-9.016
			c-0.015-0.438-0.383-0.778-0.819-0.764c-0.416,0.014-0.748,0.348-0.764,0.764l-0.007,11.02l-0.003,5.008
			c-0.001,0.995-0.208,2.195,0.164,3.14c0.854,2.174,4.546,1.358,6.315,1.376c3.611,0.031,7.223,0.027,10.832-0.018
			c3.61-0.044,7.22-0.126,10.827-0.247c1.556-0.051,3.707,0.304,4.179-1.615c0.33-1.345-0.056-3.096-0.126-4.468
			c-0.081-1.566-0.167-3.132-0.188-4.698c-0.05-3.661,0.309-7.223,1.662-10.648c0.113-0.424-0.138-0.86-0.562-0.974
			c-0.066-0.019-0.134-0.027-0.202-0.027c-11.481,0.832-22.981,1.187-34.498,1.066c-0.436,0.015-0.778,0.38-0.763,0.817
			C283.813,224.441,284.146,224.775,284.562,224.79L284.562,224.79z"/>
		<path fill="#231F20" d="M287.843,225.65c4.927,1.742,9.73,3.817,14.379,6.209c4.169,2.154,9.628,4.509,12.499,8.36
			c0.601,0.808,1.975,0.019,1.365-0.799c-2.931-3.933-7.976-6.247-12.213-8.483c-5.033-2.641-10.25-4.918-15.61-6.813
			C287.303,223.782,286.888,225.31,287.843,225.65L287.843,225.65z"/>
		<path fill="#231F20" d="M318.791,222.832c-5.229,2.236-9.659,6.544-14.331,9.734c-5.058,3.456-10.266,6.671-15.624,9.646
			c-0.89,0.496-0.092,1.864,0.798,1.366c5.348-2.985,10.556-6.201,15.625-9.646c4.671-3.192,9.104-7.501,14.331-9.736
			C320.522,223.8,319.717,222.435,318.791,222.832L318.791,222.832z"/>
		<path fill="#231F20" d="M388.462,224.79c11.51,0.121,23.01-0.234,34.497-1.065l-0.763-1.003c-1.88,4.766-1.829,9.787-1.579,14.827
			c0.063,1.263,0.458,2.966,0.201,4.216c-0.32,1.574-1.734,1.198-3.138,1.242c-3.094,0.102-6.188,0.173-9.281,0.217
			c-2.922,0.041-5.846,0.058-8.769,0.049c-1.375-0.005-2.752-0.014-4.127-0.03c-1.614-0.018-3.45,0.451-3.867-1.419
			c-0.268-1.199,0.002-2.774,0.002-4.007l0.003-4.507l0.007-9.016c-0.016-0.438-0.382-0.778-0.817-0.764
			c-0.416,0.014-0.75,0.348-0.765,0.764l-0.007,11.02l-0.004,5.008c-0.001,0.995-0.207,2.195,0.165,3.14
			c0.854,2.174,4.546,1.358,6.316,1.376c3.61,0.031,7.22,0.027,10.83-0.018c3.611-0.044,7.22-0.126,10.829-0.247
			c1.555-0.051,3.705,0.304,4.178-1.615c0.329-1.345-0.056-3.096-0.126-4.468c-0.08-1.566-0.167-3.132-0.188-4.698
			c-0.048-3.661,0.31-7.223,1.662-10.648c0.114-0.424-0.137-0.86-0.56-0.974c-0.066-0.019-0.135-0.027-0.203-0.027
			c-11.482,0.832-22.98,1.187-34.497,1.066c-0.438,0.015-0.779,0.38-0.764,0.817C387.713,224.441,388.045,224.775,388.462,224.79
			L388.462,224.79z"/>
		<path fill="#231F20" d="M391.742,225.65c4.927,1.742,9.73,3.817,14.378,6.209c4.17,2.154,9.63,4.509,12.499,8.36
			c0.601,0.808,1.976,0.019,1.366-0.799c-2.93-3.933-7.975-6.247-12.213-8.483c-5.033-2.641-10.25-4.918-15.609-6.813
			C391.201,223.782,390.788,225.31,391.742,225.65z"/>
		<path fill="#231F20" d="M422.69,222.832c-5.229,2.236-9.658,6.544-14.332,9.734c-5.057,3.456-10.265,6.671-15.624,9.646
			c-0.889,0.496-0.091,1.864,0.799,1.366c5.348-2.985,10.556-6.201,15.624-9.646c4.672-3.192,9.104-7.501,14.332-9.736
			C424.422,223.8,423.616,222.435,422.69,222.832L422.69,222.832z"/>
		<path fill="#231F20" d="M388.462,256.435c11.51,0.12,23.01-0.234,34.497-1.065l-0.763-1.003c-1.88,4.765-1.829,9.788-1.579,14.827
			c0.063,1.263,0.458,2.965,0.201,4.216c-0.32,1.574-1.734,1.198-3.138,1.242c-3.094,0.102-6.188,0.173-9.281,0.217
			c-2.922,0.041-5.846,0.058-8.769,0.048c-1.375-0.004-2.752-0.014-4.127-0.028c-1.614-0.019-3.45,0.45-3.867-1.421
			c-0.268-1.198,0.002-2.773,0.002-4.006l0.003-4.508l0.007-9.015c-0.016-0.437-0.382-0.779-0.817-0.764
			c-0.416,0.014-0.75,0.347-0.765,0.764l-0.007,11.019l-0.004,5.008c-0.001,0.995-0.207,2.197,0.165,3.141
			c0.854,2.174,4.546,1.358,6.316,1.375c3.61,0.032,7.22,0.027,10.83-0.017c3.611-0.044,7.22-0.127,10.829-0.247
			c1.555-0.051,3.705,0.303,4.178-1.615c0.329-1.344-0.056-3.096-0.126-4.468c-0.08-1.566-0.167-3.132-0.188-4.698
			c-0.048-3.661,0.31-7.222,1.662-10.647c0.114-0.425-0.137-0.861-0.56-0.976c-0.066-0.018-0.135-0.026-0.203-0.026
			c-11.482,0.832-22.98,1.187-34.497,1.066c-0.438,0.015-0.779,0.38-0.764,0.817C387.713,256.086,388.045,256.42,388.462,256.435
			L388.462,256.435z"/>
		<path fill="#231F20" d="M391.742,257.294c4.927,1.743,9.73,3.818,14.378,6.209c4.17,2.155,9.63,4.511,12.499,8.361
			c0.601,0.808,1.976,0.019,1.366-0.799c-2.93-3.933-7.975-6.246-12.213-8.483c-5.033-2.641-10.25-4.918-15.609-6.813
			C391.201,255.427,390.788,256.954,391.742,257.294z"/>
		<path fill="#231F20" d="M422.69,254.477c-5.229,2.236-9.658,6.543-14.332,9.735c-5.057,3.455-10.265,6.671-15.624,9.646
			c-0.889,0.496-0.091,1.864,0.799,1.366c5.348-2.986,10.556-6.201,15.624-9.646c4.672-3.191,9.104-7.5,14.332-9.735
			C424.422,255.443,423.616,254.079,422.69,254.477z"/>
		<path fill="#231F20" d="M287.554,255.242c10.665,0.161,21.33,0.119,31.994-0.128c1.018-0.023,1.021-1.605,0-1.582
			c-10.663,0.247-21.328,0.289-31.994,0.128c-0.438,0.015-0.78,0.381-0.765,0.818C286.804,254.894,287.137,255.228,287.554,255.242z
			"/>
		<path fill="#231F20" d="M288.45,262.415c10.965,0.176,21.929,0.128,32.892-0.142c1.018-0.025,1.021-1.606,0-1.581
			c-10.962,0.269-21.927,0.316-32.892,0.141C287.432,260.816,287.431,262.398,288.45,262.415z"/>
		<path fill="#231F20" d="M287.249,270.161l31.1-1.444c1.014-0.048,1.021-1.63,0-1.583l-31.1,1.444
			C286.236,268.625,286.229,270.208,287.249,270.161z"/>
		<path fill="#231F20" d="M335.691,247.808h29.601c0.438-0.016,0.779-0.382,0.765-0.818c-0.015-0.416-0.349-0.75-0.765-0.764
			h-29.601c-0.437,0.015-0.778,0.381-0.764,0.818C334.942,247.459,335.276,247.793,335.691,247.808z"/>
		<path fill="#231F20" d="M363.997,238.762l4.624,4.221c0.528,0.483,1.984,1.48,2.313,2.11c0.679,1.306-0.051,1.008-1.215,1.461
			c-2.861,1.138-5.498,2.775-7.787,4.835c-0.766,0.674,0.357,1.789,1.119,1.118c2.088-1.876,4.486-3.374,7.088-4.428
			c0.934-0.369,2.703-0.585,3.146-1.696c0.543-1.36-1.186-2.364-2.004-3.111l-6.167-5.628
			C364.364,236.958,363.242,238.073,363.997,238.762L363.997,238.762z"/>
		<path fill="#00AEEF" d="M292.158,300.526h21.783c1.487-8.594,1.487-17.379,0-25.973h-21.783
			C294.612,283.037,294.612,292.042,292.158,300.526z"/>
		<path fill="#00AEEF" d="M214.424,285.339h21.784c1.486-8.594,1.486-17.379,0-25.973h-21.784
			C216.878,267.849,216.878,276.854,214.424,285.339z"/>
		<path fill="#00AEEF" d="M339.098,224.052h21.783c1.487-8.594,1.487-17.379,0-25.973h-21.783
			C341.551,206.563,341.551,215.569,339.098,224.052z"/>
	</g>
</g>
<g>
	<path fill="#00AEEF" d="M225.297,338.87l12.822-4.018c-0.709-5.332-2.328-10.502-4.789-15.287l-12.822,4.017
		C223.518,328.123,225.178,333.424,225.297,338.87z"/>
	<g id="Head_x2F_Front_x2F_Short-2_3_" transform="translate(82.000000, 0.000000)">
		<g id="Head_11_" transform="translate(54.000000, 31.000000)">
			<path fill="#915B3C" d="M-8.805,201.07c-4.074-3.023-7.306-7.135-8.138-12.386c-2.395-15.131,19.091-16.643,24.858-10.057
				c5.765,6.585,9.688,25.756,4.787,28.303c-1.954,1.016-6.684,0.728-11.818-0.949l7.448,19.356l-16.697,3.855L-8.805,201.07z"/>
		</g>
		<path id="Hair_6_" fill="#191847" d="M44.688,235.717c-4.247-8.842-11.687-13.817-11.735-18.195
			c-0.032-2.918,1.187-5.02,3.664-6.303c0.087-5.822,3.939-9.182,11.551-10.072c11.416-1.337,19.276,1.719,18.692,12.569
			c-2.697,0.622-6.178,0.398-10.293,3.108c-1.31,0.857-1.95,2.741-1.928,5.64l-2.035,0.47c-2.73-2.814-4.953-3.57-6.674-2.258
			c-1.721,1.312-1.67,3.517,0.15,6.625l0.773,7.916L44.688,235.717z"/>
	</g>
	<polygon id="Leg_11_" fill="#915B3C" points="133.862,319.683 169.333,409.115 193.125,484.724 202.519,484.724 166.147,319.683 	
		"/>
	<path id="Leg_10_" fill="#915B3C" d="M126.719,319.683c-0.377,31.428-5.887,73.738-6.766,75.698
		c-0.588,1.307-20.842,17.914-60.764,49.825l6.471,6.896c47.104-27.359,71.747-42.862,73.927-46.512
		c3.269-5.474,13.913-55.842,22.461-85.908H126.719z"/>
	
		<g id="Accessories_x2F_Shoe_x2F_Flat-Sneaker_17_" transform="translate(55.786030, 203.938854) rotate(50.000000) translate(-55.786030, -203.938854) translate(22.747702, 182.358023)">
		<path id="shoe_17_" fill="#CCCCCC" d="M217.689,173.264c-0.81,2.158-1.213,3.772-1.213,4.845c0.001,1.302,0.218,3.206,0.652,5.705
			c1.512,0,15.099,0.001,40.762,0c1.058-3.502,0.446-5.392-1.835-5.671c-2.283-0.28-4.178-0.531-5.688-0.757l-18.945-8.446
			c-0.365-0.162-0.793,0.001-0.954,0.366c-0.003,0.005-0.007,0.012-0.01,0.017l-1.217,2.955c-2.113,0.987-3.829,1.479-5.151,1.479
			c-1.073,0-2.555-0.433-4.447-1.3l0,0c-0.725-0.333-1.583-0.014-1.915,0.71C217.713,173.2,217.7,173.231,217.689,173.264z"/>
	</g>
	<g id="Accessories_x2F_Shoe_x2F_Flat-Sneaker_16_" transform="translate(225.310568, 214.729269)">
		<path id="shoe_16_" fill="#CCCCCC" d="M-36.033,266.574c-0.809,2.158-1.213,3.773-1.213,4.845c0,1.304,0.217,3.204,0.651,5.705
			c1.513,0,15.1,0,40.761,0c1.061-3.501,0.449-5.393-1.833-5.671c-2.282-0.28-4.178-0.531-5.688-0.757L-22.3,262.25
			c-0.366-0.162-0.793,0.001-0.956,0.366c-0.002,0.006-0.004,0.013-0.008,0.02l-1.217,2.953c-2.113,0.985-3.83,1.479-5.15,1.479
			c-1.072,0-2.555-0.434-4.446-1.301l0,0c-0.726-0.333-1.583-0.015-1.915,0.712C-36.008,266.511-36.021,266.542-36.033,266.574z"/>
	</g>
	<polygon id="Pant_5_" fill="#032651" points="157.711,476.936 202.377,472.107 169.275,319.683 129.269,319.683 	"/>
	<path id="Pant_4_" fill="#002E6E" d="M68.428,434.078l29.299,34.545c30.859-33.573,48.852-55.481,53.973-65.721
		c5.123-10.24,9.729-37.98,13.816-83.22h-45.039c-2.232,39.8-3.738,60.626-4.516,62.478
		C115.184,384.014,99.34,401.318,68.428,434.078z"/>
	<path id="Skin_12_" fill="#915B3C" d="M189.184,303.102l25.628,12.585c6.449,0.568,11.956,1.717,16.522,3.45
		c1.131,0.713,2.627,2.296-1.475,2.701c-4.102,0.403-8.398,1.012-8.715,2.484s2.422,2.683,1.62,4.734
		c-0.534,1.369-4.637-1.104-12.305-7.413l-24.118-5.313L189.184,303.102z M102.118,319.043l14.884-2.564
		c-3.982,31.119-6.18,47.646-6.594,49.58c-0.93,4.352,3.645,9.922,5.722,12.982c-4.474,3.02-5.367-5.077-10.989-1.162
		c-5.134,3.572-8.559,9.01-15.715,6.185c-0.879-0.348-2.073-2.029-0.224-3.835c4.606-4.496,11.05-12.08,11.706-14.318
		C101.803,362.857,102.208,347.235,102.118,319.043z"/>
	<path id="Coat-Back_8_" fill="#5ABA90" d="M133.436,249.489l5.969-2.136c26.297,15.602,42.324,51.656,73.835,66.697l-5.271,9.497
		C158.357,326.128,138.212,282.254,133.436,249.489z"/>
	<path id="Shirt_8_" fill="#DDE3E9" d="M120.177,331.18c24.677-4.352,42.829-7.552,54.456-9.603c2.487-0.438,1.389-3.931,0.71-5.672
		c-7.821-20.09-27.985-39.678-33.212-69.315l-16.139,0.317C116.665,269.99,116.687,296.383,120.177,331.18z"/>
	<path id="Coat-Front_8_" fill="#54D6A1" d="M109.982,270.804c-2.396-0.25-4.471-1.453-6.225-3.61
		c-7.559-9.297-6.486-15.337-0.68-18.285c5.807-2.946,11.956-0.068,21.73-1.792c0.532-0.094,1.025-0.146,1.479-0.158l4.966-0.588
		c22.498,45.091,31.986,76.147,28.466,93.172l-42.86,7.558c-1.501,6.339-3.058,11.727-4.668,16.158l-11.679,2.059
		C93.178,330.148,96.334,298.643,109.982,270.804z"/>
	<path id="Shade_9_" fill-opacity="0.1" d="M121.883,321.019c3.326,10.985,6.953,18.743,10.881,23.276l-15.905,2.805
		C118.608,339.705,120.282,331.01,121.883,321.019z"/>
</g>
<g>
	<ellipse opacity="0.25" fill="#00AEEF" enable-background="new    " cx="513.894" cy="483.402" rx="16.225" ry="1.814"/>
	<path fill="#00AEEF" d="M477.237,410.78c7.509,0.22,16.74,15.563,16.74,15.563c2.033-5.152-3.006-12.125-9.125-20.389
		c-6.119-8.265-1.934-13.734-1.934-13.734C474.668,401.444,469.728,410.563,477.237,410.78z"/>
	<path fill="#FFFFFF" d="M475.586,398.177c0.269,0,0.536-0.91,0.536,1.016c0,1.927-0.227,3.486-0.487,3.486s-0.479-1.56-0.479-3.486
		C475.155,397.267,475.317,398.177,475.586,398.177z"/>
	<path fill="#FFFFFF" d="M471.796,400.618c0.127-0.254-0.537-0.946,1.15,0c1.687,0.945,2.949,1.885,2.823,2.117
		c-0.128,0.233-1.603-0.324-3.289-1.242C470.786,400.568,471.669,400.872,471.796,400.618z"/>
	<path fill="#00AEEF" d="M510.726,410.78c-7.517,0.22-16.741,15.563-16.741,15.563c-2.04-5.152,2.999-12.125,9.118-20.389
		c6.119-8.265,1.934-13.734,1.934-13.734C513.266,401.444,518.241,410.563,510.726,410.78z"/>
	<path fill="#FFFFFF" d="M512.384,398.177c-0.262,0-0.537-0.91-0.537,1.016c0,1.927,0.219,3.486,0.487,3.486s0.48-1.56,0.48-3.486
		C512.814,397.267,512.645,398.177,512.384,398.177z"/>
	<path fill="#FFFFFF" d="M516.167,400.618c-0.128-0.254,0.535-0.946-1.15,0c-1.688,0.945-2.951,1.885-2.823,2.117
		c0.127,0.233,1.602-0.324,3.288-1.242C517.176,400.568,516.294,400.872,516.167,400.618z"/>
	<ellipse opacity="0.25" fill="#00AEEF" enable-background="new    " cx="493.978" cy="461.496" rx="36.142" ry="5.544"/>
	<path fill="#002E6E" d="M476.186,416.413h35.584c2.738,0,4.897,1.144,4.735,2.555l-0.211,1.708l-0.29,2.413l-0.127,1.01
		l-0.296,2.413l-0.12,1.01l-0.297,2.406l-3.353,27.454c-0.303,2.448-4.298,4.361-9.132,4.361h-17.396
		c-4.835,0-8.837-1.913-9.133-4.361l-3.353-27.454l-0.289-2.406l-0.127-1.01l-0.297-2.413l-0.119-1.01l-0.297-2.413l-0.212-1.708
		C471.288,417.577,473.454,416.413,476.186,416.413z"/>
	<polygon opacity="0.25" fill="#FFFFFF" points="516.294,420.676 515.997,423.089 471.958,423.089 471.669,420.676 	"/>
	<polygon opacity="0.25" fill="#FFFFFF" points="515.877,424.099 515.581,426.512 472.374,426.512 472.085,424.099 	"/>
	<polygon opacity="0.25" fill="#FFFFFF" points="515.453,427.521 515.164,429.936 472.798,429.936 472.502,427.521 	"/>
</g>
</svg>
